<svg width="450" height="451" xmlns="http://www.w3.org/2000/svg">
 <!-- Created with Method Draw - http://github.com/duopixel/Method-Draw/ -->

 <g stroke="null">
  <title>background</title>
  <g id="canvasGrid" display="none" stroke="null">
   <rect id="svg_1" width="100%" height="100%" x="0" y="0" stroke-width="0" fill="url(#gridpattern)"/>
  </g>
 </g>
 <g stroke="null">
  <title>Layer 1</title>
  <g id="svg_39" stroke="null">
   <g id="svg_5" transform="matrix(5.160952651439291,0,0,5.358971913430698,-4515.343649477327,-3440.650268355233) " stroke="null">
    <g id="svg_6" stroke="null">
     <path fill="#FFFFFF" d="m905.16884,705.1009c0,-2.555 0.631,-4.853 1.876,-6.841c0.35,-0.554 0.703,-1.006 1.008,-1.357c0.593,-0.506 0.971,-0.911 1.136,-1.104l4.733,-4.568l0,-2.632l-2.728,0l-4.735,4.565c-0.196,0.163 -0.62,0.527 -1.145,1.102c-0.331,0.271 -0.751,0.575 -1.262,0.884c-2.085,1.26 -4.517,1.896 -7.227,1.896c-1.415,0 -2.814,-0.201 -4.184,-0.603c-0.38,1.126 -0.626,2.351 -0.738,3.672c1.607,0.438 3.253,0.655 4.922,0.655c1.98,0 3.72,-0.281 5.218,-0.708c-0.444,1.448 -0.734,3.125 -0.734,5.038c0,1.611 0.227,3.195 0.678,4.749c1.274,-0.104 2.562,-0.329 3.805,-0.718c-0.412,-1.319 -0.623,-2.666 -0.623,-4.03z" id="svg_7" stroke="null"/>
     <path fill="#FFFFFF" d="m940.11784,697.0469c-2.646,0 -5.028,-0.608 -7.083,-1.811c-0.577,-0.34 -1.047,-0.678 -1.411,-0.972c-0.522,-0.572 -0.946,-0.938 -1.142,-1.1l-4.735,-4.565l-2.727,0l0,2.632l4.733,4.568c0.167,0.192 0.543,0.601 1.14,1.106c0.277,0.319 0.596,0.725 0.916,1.217c1.304,2.014 1.966,4.36 1.966,6.979c0,1.364 -0.211,2.711 -0.624,4.031c1.244,0.389 2.531,0.616 3.802,0.718c0.451,-1.554 0.678,-3.138 0.678,-4.749c0,-1.913 -0.29,-3.59 -0.734,-5.038c1.5,0.427 3.238,0.708 5.22,0.708c1.668,0 3.313,-0.218 4.921,-0.655c-0.108,-1.226 -0.34,-2.469 -0.745,-3.67c-1.366,0.399 -2.761,0.601 -4.175,0.601z" id="svg_8" stroke="null"/>
     <path fill="#FFFFFF" d="m931.77584,663.3149c0,2.553 -0.632,4.852 -1.878,6.835c-0.35,0.557 -0.701,1.01 -1.007,1.363c-0.593,0.504 -0.969,0.911 -1.135,1.101l-4.733,4.571l0,2.632l2.727,0l4.735,-4.568c0.196,-0.162 0.62,-0.525 1.142,-1.098c0.364,-0.294 0.834,-0.635 1.411,-0.971c2.054,-1.203 4.437,-1.815 7.083,-1.815c1.414,0 2.809,0.207 4.177,0.605c0.405,-1.201 0.637,-2.444 0.745,-3.671c-1.608,-0.436 -3.253,-0.655 -4.921,-0.655c-1.982,0 -3.72,0.28 -5.22,0.708c0.444,-1.447 0.734,-3.123 0.734,-5.037c0,-1.611 -0.227,-3.201 -0.678,-4.75c-1.274,0.104 -2.56,0.329 -3.805,0.719c0.393,1.26 0.623,2.604 0.623,4.031z" id="svg_9" stroke="null"/>
     <path fill="#FFFFFF" d="m896.82684,671.3639c2.646,0 5.028,0.612 7.083,1.815c0.577,0.336 1.046,0.677 1.408,0.971c0.523,0.573 0.946,0.937 1.142,1.098l4.735,4.568l2.728,0l0,-2.632l-4.733,-4.571c-0.167,-0.192 -0.545,-0.6 -1.142,-1.105c-0.277,-0.319 -0.593,-0.726 -0.916,-1.218c-1.304,-2.013 -1.964,-4.359 -1.964,-6.976c0,-1.366 0.21,-2.717 0.625,-4.039c-1.165,-0.366 -2.436,-0.603 -3.805,-0.713c-0.451,1.551 -0.678,3.141 -0.678,4.752c0,1.914 0.29,3.589 0.734,5.037c-1.498,-0.428 -3.238,-0.708 -5.218,-0.708c-1.669,0 -3.314,0.219 -4.922,0.655c0.107,1.227 0.34,2.47 0.745,3.671c1.369,-0.399 2.764,-0.605 4.178,-0.605z" id="svg_10" stroke="null"/>
     <path fill="#FFFFFF" d="m961.65484,683.4489c-0.074,-0.161 -1.861,-3.975 -5.333,-7.816c-0.916,-1.015 -1.869,-1.937 -2.85,-2.766c-0.334,1.36 -0.783,2.658 -1.343,3.884c0.412,0.398 0.821,0.817 1.22,1.258c2.249,2.468 3.733,4.978 4.393,6.197c-0.66,1.223 -2.144,3.731 -4.393,6.199c-0.399,0.441 -0.808,0.86 -1.22,1.261c0.56,1.227 1.008,2.523 1.343,3.883c0.981,-0.828 1.934,-1.753 2.85,-2.767c3.472,-3.84 5.259,-7.654 5.333,-7.814c0.224,-0.484 0.224,-1.037 0,-1.519z" id="svg_11" stroke="null"/>
     <path fill="#FFFFFF" d="m926.19584,716.6939c-0.413,0.399 -0.846,0.792 -1.301,1.177c-2.559,2.172 -5.158,3.604 -6.424,4.241c-1.264,-0.638 -3.864,-2.069 -6.423,-4.241c-0.454,-0.385 -0.887,-0.777 -1.301,-1.177c-1.27,0.541 -2.615,0.976 -4.024,1.297c0.858,0.947 1.815,1.866 2.865,2.747c3.979,3.355 7.93,5.076 8.096,5.15c0.252,0.109 0.52,0.162 0.788,0.162c0.271,0 0.537,-0.053 0.789,-0.162c0.166,-0.074 4.117,-1.795 8.098,-5.15c1.049,-0.881 2.006,-1.8 2.865,-2.747c-1.412,-0.321 -2.756,-0.756 -4.028,-1.297z" id="svg_12" stroke="null"/>
     <path fill="#FFFFFF" d="m884.81384,691.6659c-0.413,-0.4 -0.82,-0.819 -1.22,-1.261c-2.249,-2.468 -3.733,-4.977 -4.392,-6.199c0.659,-1.219 2.143,-3.729 4.392,-6.197c0.4,-0.441 0.808,-0.86 1.22,-1.258c-0.558,-1.227 -1.009,-2.524 -1.342,-3.884c-0.981,0.829 -1.933,1.751 -2.85,2.766c-3.473,3.842 -5.259,7.655 -5.333,7.816c-0.225,0.482 -0.225,1.035 0,1.519c0.074,0.16 1.86,3.975 5.333,7.814c0.917,1.014 1.868,1.938 2.85,2.767c0.334,-1.36 0.785,-2.657 1.342,-3.883z" id="svg_13" stroke="null"/>
     <path fill="#FFFFFF" d="m910.74684,651.7199c0.413,-0.397 0.847,-0.792 1.301,-1.177c2.561,-2.17 5.159,-3.604 6.423,-4.24c1.479,0.742 4.781,2.577 7.725,5.417c1.271,-0.54 2.616,-0.972 4.027,-1.295c-0.859,-0.948 -1.815,-1.866 -2.865,-2.75c-3.981,-3.351 -7.933,-5.077 -8.098,-5.148c-0.501,-0.215 -1.074,-0.215 -1.576,0c-0.167,0.071 -4.118,1.797 -8.096,5.148c-1.05,0.884 -2.006,1.803 -2.865,2.75c1.409,0.323 2.752,0.755 4.024,1.295z" id="svg_14" stroke="null"/>
    </g>
    <g id="svg_15" stroke="null">
     <g id="svg_16" stroke="null">
      <path fill="#FFFFFF" d="m934.32584,686.0989c-0.367,0 -0.642,-0.017 -0.798,-0.031l-15.056,0c-1.065,0 -1.928,-0.834 -1.928,-1.862l0,-14.53c-0.089,-0.989 -0.337,-6.708 5.099,-11.955c2.337,-2.253 5.23,-3.835 8.605,-4.7c2.638,-0.678 5.565,-0.916 8.706,-0.711c5.271,0.346 9.327,1.824 9.496,1.888c0.514,0.187 0.918,0.58 1.115,1.074c0.064,0.164 1.594,4.08 1.953,9.165c0.215,3.03 -0.034,5.858 -0.735,8.406c-0.896,3.255 -2.536,6.05 -4.87,8.303c-4.603,4.441 -9.552,4.953 -11.587,4.953zm-0.472,-3.741c0.103,0.011 1.303,0.109 2.995,-0.293c2.334,-0.55 4.467,-1.747 6.336,-3.55c1.837,-1.771 3.134,-3.988 3.857,-6.58c0.596,-2.138 0.809,-4.543 0.635,-7.148c-0.222,-3.281 -1.01,-6.068 -1.437,-7.383c-1.361,-0.413 -4.249,-1.172 -7.648,-1.384c-2.699,-0.167 -5.191,0.037 -7.405,0.611c-2.689,0.7 -4.98,1.95 -6.817,3.723c-1.917,1.851 -3.168,3.962 -3.72,6.276c-0.383,1.609 -0.266,2.713 -0.266,2.724c0.012,0.077 0.015,0.155 0.015,0.233l0,12.759l13.221,0c0.089,-0.001 0.149,0.002 0.234,0.012z" id="svg_17" stroke="null"/>
      <path fill="#FFFFFF" d="m900.13984,716.1759c-0.703,0 -1.42,-0.023 -2.15,-0.073c-5.269,-0.345 -9.326,-1.822 -9.496,-1.886c-0.513,-0.188 -0.917,-0.579 -1.112,-1.073c-0.066,-0.166 -1.597,-4.081 -1.955,-9.168c-0.213,-3.028 0.033,-5.857 0.735,-8.404c0.896,-3.254 2.534,-6.05 4.868,-8.303c5.437,-5.247 11.36,-5.01 12.385,-4.924l15.056,0c1.066,0 1.928,0.834 1.928,1.86l0,14.533c0.092,0.99 0.336,6.707 -5.099,11.954c-2.334,2.255 -5.23,3.837 -8.604,4.702c-2.026,0.521 -4.223,0.782 -6.556,0.782zm-9.438,-5.165c1.361,0.412 4.249,1.172 7.648,1.384c2.702,0.167 5.192,-0.038 7.407,-0.614c2.687,-0.695 4.98,-1.947 6.815,-3.721c1.87,-1.806 3.109,-3.862 3.682,-6.115c0.413,-1.631 0.312,-2.792 0.302,-2.891c-0.012,-0.082 -0.014,-0.14 -0.014,-0.225l0,-12.761l-13.219,0c-0.087,0 -0.148,-0.001 -0.232,-0.013c-0.104,-0.009 -1.304,-0.106 -2.996,0.293c-2.333,0.552 -4.464,1.746 -6.336,3.554c-1.836,1.771 -3.133,3.984 -3.854,6.578c-0.596,2.137 -0.81,4.542 -0.637,7.149c0.221,3.282 1.008,6.069 1.434,7.382z" id="svg_18" stroke="null"/>
      <path fill="#FFFFFF" d="m936.80384,716.1759c-2.332,0 -4.528,-0.262 -6.556,-0.781c-3.375,-0.865 -6.268,-2.447 -8.605,-4.702c-5.437,-5.247 -5.188,-10.964 -5.099,-11.954l0,-14.533c0,-1.026 0.863,-1.86 1.928,-1.86l15.056,0c1.028,-0.086 6.949,-0.323 12.385,4.924c2.334,2.253 3.974,5.049 4.87,8.303c0.701,2.547 0.95,5.376 0.735,8.404c-0.359,5.087 -1.889,9.002 -1.953,9.168c-0.197,0.494 -0.602,0.885 -1.115,1.073c-0.169,0.063 -4.226,1.541 -9.496,1.886c-0.728,0.049 -1.446,0.072 -2.15,0.072zm10.96,-3.697l0,0l0,0zm0,0l0,0l0,0zm-27.376,-13.425c-0.011,0.099 -0.112,1.26 0.302,2.891c0.571,2.253 1.811,4.31 3.681,6.115c1.837,1.773 4.128,3.025 6.817,3.721c2.214,0.576 4.706,0.781 7.405,0.614c3.399,-0.212 6.287,-0.972 7.648,-1.384c0.426,-1.313 1.215,-4.101 1.437,-7.382c0.173,-2.607 -0.04,-5.013 -0.635,-7.149c-0.723,-2.594 -2.021,-4.808 -3.857,-6.578c-1.87,-1.808 -4.002,-3.002 -6.336,-3.554c-1.692,-0.399 -2.892,-0.302 -2.995,-0.293c-0.084,0.012 -0.145,0.013 -0.233,0.013l-13.222,0l0,12.762c0,0.085 -0.001,0.142 -0.012,0.224z" id="svg_19" stroke="null"/>
      <path fill="#FFFFFF" d="m902.61784,686.0989c-2.034,0 -6.984,-0.512 -11.587,-4.953c-2.334,-2.253 -3.972,-5.048 -4.868,-8.303c-0.703,-2.547 -0.949,-5.375 -0.735,-8.406c0.358,-5.085 1.889,-9.001 1.955,-9.165c0.195,-0.495 0.6,-0.887 1.112,-1.074c0.17,-0.064 4.228,-1.542 9.496,-1.888c3.141,-0.205 6.068,0.033 8.708,0.711c3.374,0.865 6.27,2.447 8.604,4.7c5.436,5.247 5.191,10.965 5.099,11.955l0,14.53c0,1.028 -0.862,1.862 -1.928,1.862l-15.059,0c-0.155,0.015 -0.429,0.031 -0.797,0.031zm-11.916,-28.695c-0.426,1.315 -1.213,4.102 -1.435,7.383c-0.173,2.605 0.041,5.01 0.637,7.148c0.722,2.591 2.019,4.809 3.854,6.58c1.917,1.851 4.104,3.057 6.501,3.588c1.667,0.371 2.812,0.256 2.823,0.256c0.08,-0.008 0.161,-0.014 0.24,-0.014l13.221,0l0,-12.759c0,-0.085 0.001,-0.142 0.014,-0.226c0.009,-0.099 0.111,-1.258 -0.302,-2.89c-0.573,-2.252 -1.812,-4.311 -3.682,-6.116c-1.835,-1.773 -4.128,-3.023 -6.815,-3.723c-2.214,-0.574 -4.706,-0.778 -7.407,-0.611c-3.4,0.212 -6.288,0.971 -7.649,1.384z" id="svg_20" stroke="null"/>
     </g>
     <path fill="#FFFFFF" d="m889.18284,714.3399c-0.495,0 -0.987,-0.178 -1.364,-0.545c-0.753,-0.727 -0.753,-1.906 0,-2.635l58.58,-56.54c0.753,-0.727 1.975,-0.727 2.728,0c0.753,0.726 0.753,1.907 0,2.632l-58.58,56.542c-0.378,0.368 -0.871,0.546 -1.364,0.546z" id="svg_21" stroke="null"/>
     <path fill="#FFFFFF" d="m947.76384,714.3399c-0.495,0 -0.988,-0.178 -1.365,-0.545l-58.58,-56.542c-0.753,-0.725 -0.753,-1.906 0,-2.632c0.753,-0.727 1.974,-0.727 2.728,0l58.58,56.54c0.753,0.729 0.753,1.908 0,2.635c-0.38,0.366 -0.873,0.544 -1.363,0.544z" id="svg_22" stroke="null"/>
     <path fill="#FFFFFF" d="m918.47184,717.1949c-1.065,0 -1.928,-0.832 -1.928,-1.861l0,-62.252c0,-1.027 0.863,-1.861 1.928,-1.861c1.066,0 1.928,0.834 1.928,1.861l0,62.251c0,1.03 -0.862,1.862 -1.928,1.862z" id="svg_23" stroke="null"/>
     <path fill="#FFFFFF" d="m950.71884,686.0679l-64.494,0c-1.064,0 -1.928,-0.834 -1.928,-1.862c0,-1.026 0.864,-1.86 1.928,-1.86l64.494,0c1.066,0 1.93,0.834 1.93,1.86c-0.001,1.028 -0.864,1.862 -1.93,1.862z" id="svg_24" stroke="null"/>
    </g>
   </g>
  </g>
 </g>
 <g>
  <title>background</title>
  <rect fill="none" id="canvas_background" height="402" width="582" y="-1" x="-1"/>
 </g>
</svg>