<svg width="300" height="300" xmlns="http://www.w3.org/2000/svg">

 <g>
  <title>background</title>
  <rect fill="none" id="canvas_background" height="302" width="302" y="-1" x="-1"/>
 </g>
 <g>
  <title>Layer 1</title>
  <g stroke="null" id="svg_1">
   <g stroke="null" id="svg_2">
    <path stroke="null" id="svg_3" d="m105.402884,222.025235c0,-8.844475 2.108381,-16.799311 6.268341,-23.681039c1.169467,-1.917745 2.348957,-3.482404 3.368064,-4.697438c1.981411,-1.751587 3.244434,-3.153549 3.795754,-3.821644l15.81453,-15.812745l0,-9.111021l-9.115157,0l-15.821212,15.80236c-0.654901,0.564246 -2.071627,1.824281 -3.825826,3.814721c-1.105981,0.938103 -2.509341,1.99044 -4.216762,3.060085c-6.96668,4.361659 -15.092802,6.563258 -24.147815,6.563258c-4.727986,0 -9.402511,-0.695788 -13.980138,-2.087365c-1.269707,3.8978 -2.091675,8.138302 -2.465904,12.711121c5.369522,1.516196 10.869357,2.26737 16.446042,2.26737c6.61584,0 12.429759,-0.972719 17.435076,-2.450837c-1.483552,5.012446 -2.452539,10.817607 -2.452539,17.439713c0,5.576693 0.758483,11.059921 2.265424,16.439301c4.256858,-0.36001 8.560496,-1.138878 12.713773,-2.485453c-1.376629,-4.565895 -2.081651,-9.228717 -2.081651,-13.950386z" fill="#FFFFFF"/>
    <path stroke="null" id="svg_4" d="m222.179136,194.145233c-8.841168,0 -16.800223,-2.104674 -23.666663,-6.269019c-1.927949,-1.176956 -3.498376,-2.346988 -4.714621,-3.364708c-1.744176,-1.980055 -3.160901,-3.247013 -3.815802,-3.807798l-15.821212,-15.80236l-9.111816,0l0,9.111021l15.81453,15.812745c0.558003,0.664634 1.814344,2.080442 3.80912,3.828567c0.925549,1.104261 1.991435,2.509685 3.060661,4.212809c4.357098,6.971731 6.569061,15.092725 6.569061,24.158745c0,4.721669 -0.705021,9.38449 -2.084992,13.953847c4.156618,1.346576 8.456914,2.132367 12.703749,2.485453c1.506941,-5.379379 2.265424,-10.862608 2.265424,-16.439301c0,-6.622106 -0.968987,-12.427267 -2.452539,-17.439713c5.012,1.478118 10.819237,2.450837 17.441759,2.450837c5.573344,0 11.069837,-0.754636 16.4427,-2.26737c-0.360864,-4.243963 -1.136053,-8.546775 -2.489293,-12.704197c-4.564261,1.381192 -9.225421,2.080442 -13.950066,2.080442z" fill="#FFFFFF"/>
    <path stroke="null" id="svg_5" d="m194.305735,77.37739c0,8.837552 -2.111723,16.795849 -6.275024,23.660269c-1.169467,1.92813 -2.342275,3.496251 -3.364722,4.718207c-1.981411,1.744664 -3.237752,3.153549 -3.792413,3.811259l-15.81453,15.82313l0,9.111021l9.111816,0l15.821212,-15.812745c0.654901,-0.560785 2.071627,-1.817358 3.815802,-3.800874c1.216245,-1.01772 2.786672,-2.198138 4.714621,-3.361247c6.863098,-4.164346 14.825495,-6.282866 23.666663,-6.282866c4.724645,0 9.385805,0.716558 13.956749,2.094289c1.35324,-4.157423 2.128429,-8.460234 2.489293,-12.707659c-5.372864,-1.509272 -10.869357,-2.26737 -16.4427,-2.26737c-6.622522,0 -12.429759,0.969258 -17.441759,2.450837c1.483552,-5.008985 2.452539,-10.810683 2.452539,-17.436251c0,-5.576693 -0.758483,-11.080691 -2.265424,-16.442762c-4.256858,0.36001 -8.553813,1.138878 -12.713773,2.488915c1.313144,4.361659 2.081651,9.014095 2.081651,13.953847z" fill="#FFFFFF"/>
    <path stroke="null" id="svg_6" d="m77.529483,105.240083c8.841168,0 16.800223,2.11852 23.666663,6.282866c1.927949,1.163109 3.495034,2.343526 4.704597,3.361247c1.747517,1.983516 3.160901,3.243551 3.815802,3.800874l15.821212,15.812745l9.115157,0l0,-9.111021l-15.81453,-15.82313c-0.558003,-0.664634 -1.821027,-2.07698 -3.815802,-3.825106c-0.925549,-1.104261 -1.981411,-2.513146 -3.060661,-4.21627c-4.357098,-6.96827 -6.562378,-15.089263 -6.562378,-24.14836c0,-4.728592 0.70168,-9.40526 2.088333,-13.98154c-3.892653,-1.266958 -8.139488,-2.087365 -12.713773,-2.468145c-1.506941,5.368995 -2.265424,10.872993 -2.265424,16.449686c0,6.625568 0.968987,12.423805 2.452539,17.436251c-5.005317,-1.481579 -10.819237,-2.450837 -17.435076,-2.450837c-5.576685,0 -11.073178,0.758098 -16.446042,2.26737c0.357523,4.247425 1.136053,8.550236 2.489293,12.707659c4.574285,-1.381192 9.235445,-2.094289 13.96009,-2.094289z" fill="#FFFFFF"/>
    <path stroke="null" id="svg_7" d="m294.141428,147.073932c-0.247259,-0.557323 -6.218221,-13.759996 -17.81933,-27.056133c-3.060661,-3.513559 -6.244952,-6.705185 -9.522799,-9.57488c-1.116005,4.707822 -2.616264,9.201024 -4.48741,13.444987c1.376629,1.37773 2.743235,2.828155 4.076426,4.354736c7.514658,8.543313 12.473197,17.232015 14.678477,21.451747c-2.20528,4.233579 -7.163818,12.915357 -14.678477,21.45867c-1.333192,1.526581 -2.699797,2.977005 -4.076426,4.365121c1.871147,4.247425 3.368064,8.733703 4.48741,13.441525c3.277848,-2.866233 6.462138,-6.068245 9.522799,-9.578342c11.601109,-13.292675 17.572071,-26.495348 17.81933,-27.049209c0.748459,-1.675431 0.748459,-3.589715 0,-5.258222z" fill="#FFFFFF"/>
    <path stroke="null" id="svg_8" d="m175.661096,262.15596c-1.379971,1.381192 -2.826768,2.741614 -4.347074,4.074343c-8.550472,7.518669 -17.234596,12.47573 -21.464724,14.68079c-4.223445,-2.208523 -12.910911,-7.162121 -21.461383,-14.68079c-1.516965,-1.332729 -2.963763,-2.68969 -4.347074,-4.074343c-4.243493,1.872744 -8.737586,3.378555 -13.445525,4.48974c2.866864,3.278168 6.06452,6.459409 9.572919,9.509109c13.295165,11.613783 26.496772,17.571255 27.051433,17.827416c0.842016,0.377318 1.737493,0.560785 2.632971,0.560785c0.905501,0 1.794296,-0.183467 2.636312,-0.560785c0.554661,-0.256161 13.756269,-6.213633 27.058116,-17.827416c3.505058,-3.0497 6.702714,-6.230941 9.572919,-9.509109c-4.717962,-1.111185 -9.208714,-2.616995 -13.45889,-4.48974z" fill="#FFFFFF"/>
    <path stroke="null" id="svg_9" d="m37.390048,175.51818c-1.379971,-1.384654 -2.739893,-2.835078 -4.076426,-4.365121c-7.514658,-8.543313 -12.473197,-17.228553 -14.675135,-21.45867c2.201939,-4.219732 7.160477,-12.908434 14.675135,-21.451747c1.336533,-1.526581 2.699797,-2.977005 4.076426,-4.354736c-1.864464,-4.247425 -3.371405,-8.737165 -4.484069,-13.444987c-3.277848,2.869695 -6.458797,6.061321 -9.522799,9.57488c-11.60445,13.299598 -17.572071,26.498809 -17.81933,27.056133c-0.7518,1.668508 -0.7518,3.582791 0,5.258222c0.247259,0.553861 6.21488,13.759996 17.81933,27.049209c3.064002,3.510097 6.24161,6.708647 9.522799,9.578342c1.116005,-4.707822 2.622947,-9.197562 4.484069,-13.441525z" fill="#FFFFFF"/>
    <path stroke="null" id="svg_10" d="m124.04084,37.239742c1.379971,-1.374269 2.830109,-2.741614 4.347074,-4.074343c8.557154,-7.511746 17.237938,-12.47573 21.461383,-14.677329c4.941832,2.568533 15.974914,8.920631 25.811799,18.751672c4.246834,-1.869282 8.740928,-3.364708 13.455549,-4.482816c-2.870205,-3.281629 -6.06452,-6.459409 -9.572919,-9.519494c-13.301847,-11.599936 -26.506796,-17.574717 -27.058116,-17.820493c-1.674008,-0.744251 -3.588592,-0.744251 -5.265941,0c-0.558003,0.245776 -13.75961,6.220557 -27.051433,17.820493c-3.5084,3.060085 -6.702714,6.241326 -9.572919,9.519494c4.707938,1.118108 9.195349,2.613534 13.445525,4.482816z" fill="#FFFFFF"/>
   </g>
   <g stroke="null" id="svg_11">
    <g stroke="null" id="svg_12">
     <path stroke="null" id="svg_13" d="m202.826134,156.247262c-1.226269,0 -2.145136,-0.058848 -2.666384,-0.107311l-50.307112,0c-3.55852,0 -6.44209,-2.887003 -6.44209,-6.445563l0,-50.297544c-0.297379,-3.423556 -1.126029,-23.220642 17.037458,-41.383836c7.808696,-7.799062 17.475172,-13.275367 28.752172,-16.269681c8.814437,-2.346988 18.594519,-3.170857 29.089646,-2.461222c17.612167,1.197725 31.164614,6.314021 31.7293,6.535565c1.717445,0.647326 3.067344,2.007748 3.725586,3.717795c0.213845,0.567708 5.326085,14.123467 6.525624,31.725877c0.718387,10.488752 -0.113605,20.278253 -2.45588,29.098497c-2.993835,11.267619 -8.473621,20.942887 -16.272292,28.741948c-15.380156,15.373117 -31.916414,17.145474 -38.716027,17.145474zm-1.577109,-12.949973c0.344157,0.038078 4.353757,0.377318 10.007293,-1.014259c7.798672,-1.903899 14.925735,-6.047475 21.170687,-12.288801c6.138029,-6.130554 10.471738,-13.804997 12.887522,-22.777553c1.991435,-7.400974 2.703139,-15.726204 2.121747,-24.743761c-0.741776,-11.357622 -3.374746,-21.005196 -4.801496,-25.557245c-4.547554,-1.429655 -14.197325,-4.057035 -25.554516,-4.790902c-9.018258,-0.578093 -17.34486,0.12808 -24.742572,2.115058c-8.984845,2.423144 -16.639839,6.750187 -22.777868,12.887664c-6.405336,6.407485 -10.585343,13.714995 -12.429759,21.725216c-1.279731,5.569769 -0.888795,9.391413 -0.888795,9.429491c0.040096,0.266546 0.05012,0.536553 0.05012,0.806561l0,44.16699l44.175766,0c0.297379,-0.003462 0.497859,0.006923 0.781872,0.04154z" fill="#FFFFFF"/>
     <path stroke="null" id="svg_14" d="m88.599319,260.362833c-2.348957,0 -4.744693,-0.079618 -7.183866,-0.252699c-17.605484,-1.194264 -31.161273,-6.307097 -31.7293,-6.528642c-1.714104,-0.650787 -3.064002,-2.004286 -3.715562,-3.714333c-0.220528,-0.574631 -5.336109,-14.126929 -6.532306,-31.736262c-0.711704,-10.481828 0.110264,-20.274791 2.45588,-29.091573c2.993835,-11.264158 8.466938,-20.942887 16.26561,-28.741948c18.166828,-18.163194 37.957545,-17.342787 41.382411,-17.045087l50.307112,0c3.561861,0 6.44209,2.887003 6.44209,6.43864l0,50.307929c0.307403,3.427018 1.122688,23.21718 -17.037458,41.380375c-7.798672,7.805985 -17.475172,13.28229 -28.74883,16.276604c-6.769541,1.803511 -14.11045,2.706998 -21.90578,2.706998zm-31.535502,-17.87934c4.547554,1.426193 14.197325,4.057035 25.554516,4.790902c9.028282,0.578093 17.348202,-0.131542 24.749255,-2.125443c8.978162,-2.405836 16.639839,-6.739802 22.771185,-12.880741c6.248293,-6.251711 10.388205,-13.368831 12.302789,-21.167893c1.379971,-5.645925 1.042496,-9.664883 1.009083,-10.007584c-0.040096,-0.283854 -0.046779,-0.484629 -0.046779,-0.778868l0,-44.173914l-44.169083,0c-0.290696,0 -0.494517,-0.003462 -0.775189,-0.045001c-0.347499,-0.031155 -4.357098,-0.366933 -10.010634,1.014259c-7.79533,1.910822 -14.915711,6.044013 -21.170687,12.302648c-6.134688,6.130554 -10.468397,13.79115 -12.877498,22.770629c-1.991435,7.397512 -2.70648,15.722742 -2.128429,24.747223c0.738435,11.361083 3.368064,21.008658 4.791472,25.553783z" fill="#FFFFFF"/>
     <path stroke="null" id="svg_15" d="m211.105958,260.362833c-7.791989,0 -15.129557,-0.906948 -21.90578,-2.703536c-11.276999,-2.994314 -20.943476,-8.470619 -28.752172,-16.276604c-18.166828,-18.163194 -17.334836,-37.953357 -17.037458,-41.380375l0,-50.307929c0,-3.551637 2.883571,-6.43864 6.44209,-6.43864l50.307112,0c3.43489,-0.297701 23.218924,-1.118108 41.382411,17.045087c7.798672,7.799062 13.278458,17.477791 16.272292,28.741948c2.342275,8.816782 3.174266,18.609745 2.45588,29.091573c-1.199539,17.609333 -6.311778,31.161631 -6.525624,31.736262c-0.658243,1.710047 -2.011483,3.063546 -3.725586,3.714333c-0.564685,0.218083 -14.120474,5.334378 -31.7293,6.528642c-2.432491,0.16962 -4.831568,0.249238 -7.183866,0.249238zm36.621011,-12.797661l0,0l0,0zm0,0l0,0l0,0zm-91.472336,-46.472439c-0.036755,0.342702 -0.374229,4.361659 1.009083,10.007584c1.907901,7.799062 6.051154,14.919643 12.299447,21.167893c6.138029,6.137477 13.793023,10.471443 22.777868,12.880741c7.397712,1.993901 15.724314,2.703536 24.742572,2.125443c11.357191,-0.733866 21.006962,-3.364708 25.554516,-4.790902c1.423408,-4.545126 4.05972,-14.196162 4.801496,-25.553783c0.578051,-9.02448 -0.133653,-17.353172 -2.121747,-24.747223c-2.415784,-8.979479 -6.752834,-16.643537 -12.887522,-22.770629c-6.248293,-6.258635 -13.372015,-10.391826 -21.170687,-12.302648c-5.653536,-1.381192 -9.663135,-1.045414 -10.007293,-1.014259c-0.280672,0.04154 -0.484493,0.045001 -0.778531,0.045001l-44.179107,0l0,44.177375c0,0.294239 -0.003341,0.491552 -0.040096,0.775406z" fill="#FFFFFF"/>
     <path stroke="null" id="svg_16" d="m96.879143,156.247262c-6.796272,0 -23.335871,-1.772357 -38.716027,-17.145474c-7.798672,-7.799062 -13.271775,-17.474329 -16.26561,-28.741948c-2.348957,-8.816782 -3.170925,-18.606284 -2.45588,-29.098497c1.196197,-17.60241 6.311778,-31.158169 6.532306,-31.725877c0.65156,-1.713509 2.0048,-3.070469 3.715562,-3.717795c0.568027,-0.221545 14.127157,-5.33784 31.7293,-6.535565c10.495127,-0.709635 20.27521,0.114234 29.096329,2.461222c11.273658,2.994314 20.950159,8.470619 28.74883,16.269681c18.163487,18.163194 17.34486,37.956819 17.037458,41.383836l0,50.297544c0,3.55856 -2.880229,6.445563 -6.44209,6.445563l-50.317136,0c-0.517907,0.051925 -1.433432,0.107311 -2.663043,0.107311zm-39.815326,-99.331592c-1.423408,4.552049 -4.053037,14.199623 -4.794813,25.557245c-0.578051,9.017557 0.136995,17.342787 2.128429,24.743761c2.412443,8.969094 6.746152,16.646999 12.877498,22.777553c6.405336,6.407485 13.712831,10.582216 21.722007,12.420343c5.570002,1.284266 9.395829,0.886178 9.432583,0.886178c0.267307,-0.027693 0.537955,-0.048463 0.80192,-0.048463l44.175766,0l0,-44.16699c0,-0.294239 0.003341,-0.491552 0.046779,-0.782329c0.030072,-0.342702 0.370888,-4.354736 -1.009083,-10.004123c-1.914584,-7.7956 -6.054496,-14.923105 -12.302789,-21.171355c-6.131346,-6.137477 -13.793023,-10.46452 -22.771185,-12.887664c-7.397712,-1.986978 -15.724314,-2.693151 -24.749255,-2.115058c-11.360533,0.733866 -21.010303,3.361247 -25.557857,4.790902z" fill="#FFFFFF"/>
    </g>
    <path stroke="null" id="svg_17" d="m51.988332,254.007273c-1.65396,0 -3.297896,-0.616171 -4.557578,-1.886591c-2.516024,-2.516608 -2.516024,-6.597875 0,-9.121406l195.735296,-195.720795c2.516024,-2.516608 6.599133,-2.516608 9.115157,0c2.516024,2.513146 2.516024,6.601336 0,9.111021l-195.735296,195.727719c-1.263024,1.273881 -2.910301,1.890052 -4.557578,1.890052z" fill="#FFFFFF"/>
    <path stroke="null" id="svg_18" d="m247.726969,254.007273c-1.65396,0 -3.301237,-0.616171 -4.56092,-1.886591l-195.735296,-195.727719c-2.516024,-2.509685 -2.516024,-6.597875 0,-9.111021c2.516024,-2.516608 6.595792,-2.516608 9.115157,0l195.735296,195.720795c2.516024,2.523531 2.516024,6.604798 0,9.121406c-1.269707,1.266958 -2.916984,1.883129 -4.554237,1.883129z" fill="#FFFFFF"/>
    <path stroke="null" id="svg_19" d="m149.852639,263.890238c-3.55852,0 -6.44209,-2.88008 -6.44209,-6.442101l0,-215.49365c0,-3.555098 2.883571,-6.442101 6.44209,-6.442101c3.561861,0 6.44209,2.887003 6.44209,6.442101l0,215.490188c0,3.565483 -2.880229,6.445563 -6.44209,6.445563z" fill="#FFFFFF"/>
    <path stroke="null" id="svg_20" d="m257.600609,156.139952l-215.49594,0c-3.555178,0 -6.44209,-2.887003 -6.44209,-6.445563c0,-3.551637 2.886912,-6.43864 6.44209,-6.43864l215.49594,0c3.561861,0 6.448773,2.887003 6.448773,6.43864c-0.003341,3.55856 -2.886912,6.445563 -6.448773,6.445563z" fill="#FFFFFF"/>
   </g>
  </g>
 </g>
</svg>