<?xml version="1.0" encoding="utf-8"?>
<!-- Generator: Adobe Illustrator 16.0.0, SVG Export Plug-In . SVG Version: 6.00 Build 0)  -->
<svg version="1.2" baseProfile="tiny" id="Capa_1" xmlns="http://www.w3.org/2000/svg" xmlns:xlink="http://www.w3.org/1999/xlink"
	 x="0px" y="0px" width="246.614px" height="93.543px" viewBox="0 0 246.614 93.543" xml:space="preserve">
<g>
	<g>
		<path fill="#FFFFFF" d="M36.36,67.594c0-2.555,0.631-4.853,1.876-6.841c0.35-0.554,0.703-1.006,1.008-1.357
			c0.593-0.506,0.971-0.911,1.136-1.104l4.733-4.568v-2.632h-2.728l-4.735,4.565c-0.196,0.163-0.62,0.527-1.145,1.102
			c-0.331,0.271-0.751,0.575-1.262,0.884c-2.085,1.26-4.517,1.896-7.227,1.896c-1.415,0-2.814-0.201-4.184-0.603
			c-0.38,1.126-0.626,2.351-0.738,3.672c1.607,0.438,3.253,0.655,4.922,0.655c1.98,0,3.72-0.281,5.218-0.708
			c-0.444,1.448-0.734,3.125-0.734,5.038c0,1.611,0.227,3.195,0.678,4.749c1.274-0.104,2.562-0.329,3.805-0.718
			C36.571,70.305,36.36,68.958,36.36,67.594z"/>
		<path fill="#FFFFFF" d="M71.309,59.54c-2.646,0-5.028-0.608-7.083-1.811c-0.577-0.34-1.047-0.678-1.411-0.972
			c-0.522-0.572-0.946-0.938-1.142-1.1l-4.735-4.565h-2.727v2.632l4.733,4.568c0.167,0.192,0.543,0.601,1.14,1.106
			c0.277,0.319,0.596,0.725,0.916,1.217c1.304,2.014,1.966,4.36,1.966,6.979c0,1.364-0.211,2.711-0.624,4.031
			c1.244,0.389,2.531,0.616,3.802,0.718c0.451-1.554,0.678-3.138,0.678-4.749c0-1.913-0.29-3.59-0.734-5.038
			c1.5,0.427,3.238,0.708,5.22,0.708c1.668,0,3.313-0.218,4.921-0.655c-0.108-1.226-0.34-2.469-0.745-3.67
			C74.118,59.338,72.723,59.54,71.309,59.54z"/>
		<path fill="#FFFFFF" d="M62.967,25.808c0,2.553-0.632,4.852-1.878,6.835c-0.35,0.557-0.701,1.01-1.007,1.363
			c-0.593,0.504-0.969,0.911-1.135,1.101l-4.733,4.571v2.632h2.727l4.735-4.568c0.196-0.162,0.62-0.525,1.142-1.098
			c0.364-0.294,0.834-0.635,1.411-0.971c2.054-1.203,4.437-1.815,7.083-1.815c1.414,0,2.809,0.207,4.177,0.605
			c0.405-1.201,0.637-2.444,0.745-3.671c-1.608-0.436-3.253-0.655-4.921-0.655c-1.982,0-3.72,0.28-5.22,0.708
			c0.444-1.447,0.734-3.123,0.734-5.037c0-1.611-0.227-3.201-0.678-4.75c-1.274,0.104-2.56,0.329-3.805,0.719
			C62.737,23.037,62.967,24.381,62.967,25.808z"/>
		<path fill="#FFFFFF" d="M28.018,33.857c2.646,0,5.028,0.612,7.083,1.815c0.577,0.336,1.046,0.677,1.408,0.971
			c0.523,0.573,0.946,0.937,1.142,1.098l4.735,4.568h2.728v-2.632l-4.733-4.571c-0.167-0.192-0.545-0.6-1.142-1.105
			c-0.277-0.319-0.593-0.726-0.916-1.218c-1.304-2.013-1.964-4.359-1.964-6.976c0-1.366,0.21-2.717,0.625-4.039
			c-1.165-0.366-2.436-0.603-3.805-0.713c-0.451,1.551-0.678,3.141-0.678,4.752c0,1.914,0.29,3.589,0.734,5.037
			c-1.498-0.428-3.238-0.708-5.218-0.708c-1.669,0-3.314,0.219-4.922,0.655c0.107,1.227,0.34,2.47,0.745,3.671
			C25.209,34.063,26.604,33.857,28.018,33.857z"/>
		<path fill="#FFFFFF" d="M92.846,45.942c-0.074-0.161-1.861-3.975-5.333-7.816c-0.916-1.015-1.869-1.937-2.85-2.766
			c-0.334,1.36-0.783,2.658-1.343,3.884c0.412,0.398,0.821,0.817,1.22,1.258c2.249,2.468,3.733,4.978,4.393,6.197
			c-0.66,1.223-2.144,3.731-4.393,6.199c-0.399,0.441-0.808,0.86-1.22,1.261c0.56,1.227,1.008,2.523,1.343,3.883
			c0.981-0.828,1.934-1.753,2.85-2.767c3.472-3.84,5.259-7.654,5.333-7.814C93.07,46.977,93.07,46.424,92.846,45.942z"/>
		<path fill="#FFFFFF" d="M57.387,79.187c-0.413,0.399-0.846,0.792-1.301,1.177c-2.559,2.172-5.158,3.604-6.424,4.241
			c-1.264-0.638-3.864-2.069-6.423-4.241c-0.454-0.385-0.887-0.777-1.301-1.177c-1.27,0.541-2.615,0.976-4.024,1.297
			c0.858,0.947,1.815,1.866,2.865,2.747c3.979,3.355,7.93,5.076,8.096,5.15c0.252,0.109,0.52,0.162,0.788,0.162
			c0.271,0,0.537-0.053,0.789-0.162c0.166-0.074,4.117-1.795,8.098-5.15c1.049-0.881,2.006-1.8,2.865-2.747
			C60.003,80.163,58.659,79.728,57.387,79.187z"/>
		<path fill="#FFFFFF" d="M16.005,54.159c-0.413-0.4-0.82-0.819-1.22-1.261c-2.249-2.468-3.733-4.977-4.392-6.199
			c0.659-1.219,2.143-3.729,4.392-6.197c0.4-0.441,0.808-0.86,1.22-1.258c-0.558-1.227-1.009-2.524-1.342-3.884
			c-0.981,0.829-1.933,1.751-2.85,2.766c-3.473,3.842-5.259,7.655-5.333,7.816c-0.225,0.482-0.225,1.035,0,1.519
			c0.074,0.16,1.86,3.975,5.333,7.814c0.917,1.014,1.868,1.938,2.85,2.767C14.997,56.682,15.448,55.385,16.005,54.159z"/>
		<path fill="#FFFFFF" d="M41.938,14.213c0.413-0.397,0.847-0.792,1.301-1.177c2.561-2.17,5.159-3.604,6.423-4.24
			c1.479,0.742,4.781,2.577,7.725,5.417c1.271-0.54,2.616-0.972,4.027-1.295c-0.859-0.948-1.815-1.866-2.865-2.75
			c-3.981-3.351-7.933-5.077-8.098-5.148c-0.501-0.215-1.074-0.215-1.576,0c-0.167,0.071-4.118,1.797-8.096,5.148
			c-1.05,0.884-2.006,1.803-2.865,2.75C39.323,13.241,40.666,13.673,41.938,14.213z"/>
	</g>
	<g>
		<g>
			<path fill="#FFFFFF" d="M65.517,48.592c-0.367,0-0.642-0.017-0.798-0.031H49.663c-1.065,0-1.928-0.834-1.928-1.862v-14.53
				c-0.089-0.989-0.337-6.708,5.099-11.955c2.337-2.253,5.23-3.835,8.605-4.7c2.638-0.678,5.565-0.916,8.706-0.711
				c5.271,0.346,9.327,1.824,9.496,1.888c0.514,0.187,0.918,0.58,1.115,1.074c0.064,0.164,1.594,4.08,1.953,9.165
				c0.215,3.03-0.034,5.858-0.735,8.406c-0.896,3.255-2.536,6.05-4.87,8.303C72.501,48.08,67.552,48.592,65.517,48.592z
				 M65.045,44.851c0.103,0.011,1.303,0.109,2.995-0.293c2.334-0.55,4.467-1.747,6.336-3.55c1.837-1.771,3.134-3.988,3.857-6.58
				c0.596-2.138,0.809-4.543,0.635-7.148c-0.222-3.281-1.01-6.068-1.437-7.383c-1.361-0.413-4.249-1.172-7.648-1.384
				c-2.699-0.167-5.191,0.037-7.405,0.611c-2.689,0.7-4.98,1.95-6.817,3.723c-1.917,1.851-3.168,3.962-3.72,6.276
				c-0.383,1.609-0.266,2.713-0.266,2.724c0.012,0.077,0.015,0.155,0.015,0.233v12.759h13.221
				C64.9,44.838,64.96,44.841,65.045,44.851z"/>
			<path fill="#FFFFFF" d="M31.331,78.669c-0.703,0-1.42-0.023-2.15-0.073c-5.269-0.345-9.326-1.822-9.496-1.886
				c-0.513-0.188-0.917-0.579-1.112-1.073c-0.066-0.166-1.597-4.081-1.955-9.168c-0.213-3.028,0.033-5.857,0.735-8.404
				c0.896-3.254,2.534-6.05,4.868-8.303c5.437-5.247,11.36-5.01,12.385-4.924h15.056c1.066,0,1.928,0.834,1.928,1.86v14.533
				c0.092,0.99,0.336,6.707-5.099,11.954c-2.334,2.255-5.23,3.837-8.604,4.702C35.861,78.408,33.664,78.669,31.331,78.669z
				 M21.893,73.504c1.361,0.412,4.249,1.172,7.648,1.384c2.702,0.167,5.192-0.038,7.407-0.614c2.687-0.695,4.98-1.947,6.815-3.721
				c1.87-1.806,3.109-3.862,3.682-6.115c0.413-1.631,0.312-2.792,0.302-2.891c-0.012-0.082-0.014-0.14-0.014-0.225V48.561H34.514
				c-0.087,0-0.148-0.001-0.232-0.013c-0.104-0.009-1.304-0.106-2.996,0.293c-2.333,0.552-4.464,1.746-6.336,3.554
				c-1.836,1.771-3.133,3.984-3.854,6.578c-0.596,2.137-0.81,4.542-0.637,7.149C20.68,69.404,21.467,72.191,21.893,73.504z"/>
			<path fill="#FFFFFF" d="M67.995,78.669c-2.332,0-4.528-0.262-6.556-0.781c-3.375-0.865-6.268-2.447-8.605-4.702
				c-5.437-5.247-5.188-10.964-5.099-11.954V46.699c0-1.026,0.863-1.86,1.928-1.86h15.056c1.028-0.086,6.949-0.323,12.385,4.924
				c2.334,2.253,3.974,5.049,4.87,8.303c0.701,2.547,0.95,5.376,0.735,8.404c-0.359,5.087-1.889,9.002-1.953,9.168
				c-0.197,0.494-0.602,0.885-1.115,1.073c-0.169,0.063-4.226,1.541-9.496,1.886C69.417,78.646,68.699,78.669,67.995,78.669z
				 M78.955,74.972L78.955,74.972L78.955,74.972z M78.955,74.972L78.955,74.972L78.955,74.972z M51.579,61.547
				c-0.011,0.099-0.112,1.26,0.302,2.891c0.571,2.253,1.811,4.31,3.681,6.115c1.837,1.773,4.128,3.025,6.817,3.721
				c2.214,0.576,4.706,0.781,7.405,0.614c3.399-0.212,6.287-0.972,7.648-1.384c0.426-1.313,1.215-4.101,1.437-7.382
				c0.173-2.607-0.04-5.013-0.635-7.149c-0.723-2.594-2.021-4.808-3.857-6.578c-1.87-1.808-4.002-3.002-6.336-3.554
				c-1.692-0.399-2.892-0.302-2.995-0.293c-0.084,0.012-0.145,0.013-0.233,0.013H51.591v12.762
				C51.591,61.408,51.59,61.465,51.579,61.547z"/>
			<path fill="#FFFFFF" d="M33.809,48.592c-2.034,0-6.984-0.512-11.587-4.953c-2.334-2.253-3.972-5.048-4.868-8.303
				c-0.703-2.547-0.949-5.375-0.735-8.406c0.358-5.085,1.889-9.001,1.955-9.165c0.195-0.495,0.6-0.887,1.112-1.074
				c0.17-0.064,4.228-1.542,9.496-1.888c3.141-0.205,6.068,0.033,8.708,0.711c3.374,0.865,6.27,2.447,8.604,4.7
				c5.436,5.247,5.191,10.965,5.099,11.955v14.53c0,1.028-0.862,1.862-1.928,1.862H34.606
				C34.451,48.576,34.177,48.592,33.809,48.592z M21.893,19.897c-0.426,1.315-1.213,4.102-1.435,7.383
				c-0.173,2.605,0.041,5.01,0.637,7.148c0.722,2.591,2.019,4.809,3.854,6.58c1.917,1.851,4.104,3.057,6.501,3.588
				c1.667,0.371,2.812,0.256,2.823,0.256c0.08-0.008,0.161-0.014,0.24-0.014h13.221V32.079c0-0.085,0.001-0.142,0.014-0.226
				c0.009-0.099,0.111-1.258-0.302-2.89c-0.573-2.252-1.812-4.311-3.682-6.116c-1.835-1.773-4.128-3.023-6.815-3.723
				c-2.214-0.574-4.706-0.778-7.407-0.611C26.142,18.725,23.254,19.484,21.893,19.897z"/>
		</g>
		<path fill="#FFFFFF" d="M20.374,76.833c-0.495,0-0.987-0.178-1.364-0.545c-0.753-0.727-0.753-1.906,0-2.635l58.58-56.54
			c0.753-0.727,1.975-0.727,2.728,0c0.753,0.726,0.753,1.907,0,2.632l-58.58,56.542C21.36,76.655,20.867,76.833,20.374,76.833z"/>
		<path fill="#FFFFFF" d="M78.955,76.833c-0.495,0-0.988-0.178-1.365-0.545l-58.58-56.542c-0.753-0.725-0.753-1.906,0-2.632
			c0.753-0.727,1.974-0.727,2.728,0l58.58,56.54c0.753,0.729,0.753,1.908,0,2.635C79.938,76.655,79.445,76.833,78.955,76.833z"/>
		<path fill="#FFFFFF" d="M49.663,79.688c-1.065,0-1.928-0.832-1.928-1.861V15.575c0-1.027,0.863-1.861,1.928-1.861
			c1.066,0,1.928,0.834,1.928,1.861v62.251C51.591,78.856,50.729,79.688,49.663,79.688z"/>
		<path fill="#FFFFFF" d="M81.91,48.561H17.416c-1.064,0-1.928-0.834-1.928-1.862c0-1.026,0.864-1.86,1.928-1.86H81.91
			c1.066,0,1.93,0.834,1.93,1.86C83.839,47.727,82.976,48.561,81.91,48.561z"/>
	</g>
</g>
<g>
	<path fill="#FFFFFF" d="M108.225,63.661c0,4.766,0,8.687,0.248,10.77c0.149,1.441,0.446,2.533,1.936,2.731
		c0.695,0.1,1.787,0.199,2.233,0.199c0.298,0,0.396,0.147,0.396,0.296c0,0.249-0.248,0.398-0.794,0.398
		c-2.729,0-5.855-0.149-6.104-0.149c-0.249,0-3.375,0.149-4.865,0.149c-0.546,0-0.794-0.1-0.794-0.398
		c0-0.148,0.1-0.296,0.397-0.296c0.447,0,1.042-0.1,1.489-0.199c0.992-0.198,1.241-1.29,1.439-2.731
		c0.248-2.083,0.248-6.004,0.248-10.77v-8.733c0-7.741,0-9.132-0.099-10.72c-0.099-1.688-0.596-2.531-1.687-2.78
		c-0.547-0.149-1.191-0.198-1.54-0.198c-0.198,0-0.397-0.1-0.397-0.298c0-0.298,0.249-0.396,0.794-0.396
		c1.638,0,4.765,0.149,5.014,0.149c0.248,0,3.374-0.149,4.863-0.149c0.546,0,0.794,0.099,0.794,0.396
		c0,0.198-0.199,0.298-0.397,0.298c-0.348,0-0.645,0.049-1.241,0.149c-1.34,0.249-1.737,1.092-1.836,2.829
		c-0.099,1.588-0.099,2.979-0.099,10.72V63.661z"/>
	<path fill="#FFFFFF" d="M122.266,58.352c0-6.552,0-7.743-0.099-9.082c-0.1-1.439-0.348-2.135-1.787-2.333
		c-0.347-0.049-1.092-0.1-1.489-0.1c-0.149,0-0.347-0.198-0.347-0.348c0-0.247,0.198-0.347,0.695-0.347c1.985,0,4.666,0.1,4.913,0.1
		c0.397,0,3.027-0.1,4.318-0.1c0.496,0,0.695,0.1,0.695,0.347c0,0.149-0.149,0.348-0.348,0.348c-0.298,0-0.547,0-1.092,0.1
		c-1.143,0.249-1.439,0.843-1.539,2.333c-0.1,1.339-0.1,2.53-0.1,9.082v2.531h0.199c0.695-0.795,8.486-8.488,10.124-10.175
		c1.24-1.24,2.384-2.332,2.384-3.026c0-0.547-0.2-0.794-0.547-0.845c-0.249-0.049-0.396-0.247-0.396-0.396
		c0-0.198,0.198-0.298,0.496-0.298c0.892,0,2.232,0.1,3.273,0.1c0.249,0,3.128-0.1,4.22-0.1c0.447,0,0.646,0.1,0.646,0.298
		s-0.1,0.348-0.446,0.348c-0.646,0-1.589,0.248-2.433,0.596c-1.786,0.794-2.631,1.736-4.565,3.571
		c-1.092,0.994-8.536,8.142-9.479,9.183c1.143,1.24,10.224,10.323,12.01,11.96c3.673,3.277,4.17,3.822,6.254,4.667
		c1.143,0.447,2.382,0.596,2.68,0.596s0.547,0.147,0.547,0.348c0,0.197-0.2,0.347-0.943,0.347h-2.232c-1.242,0-2.036,0-3.028-0.1
		c-2.284-0.198-3.425-1.142-5.311-2.58c-1.984-1.541-11.167-11.217-13.251-13.699h-0.199v4.121c0,4.067,0,7.393,0.199,9.131
		c0.148,1.241,0.348,2.035,1.687,2.233c0.597,0.1,1.291,0.199,1.688,0.199c0.248,0,0.347,0.198,0.347,0.348
		c0,0.197-0.198,0.347-0.694,0.347c-2.135,0-4.765-0.149-5.112-0.149c-0.347,0-2.978,0.149-4.318,0.149
		c-0.447,0-0.695-0.1-0.695-0.347c0-0.149,0.099-0.348,0.347-0.348c0.398,0,0.943-0.1,1.34-0.199
		c0.844-0.198,0.943-0.992,1.142-2.233c0.248-1.738,0.248-5.063,0.248-9.131V58.352z"/>
	<path fill="#FFFFFF" d="M156.803,65.797c0,4.067,0,7.393,0.199,9.131c0.149,1.241,0.298,2.035,1.588,2.233
		c0.646,0.1,1.589,0.199,1.985,0.199c0.249,0,0.347,0.198,0.347,0.348c0,0.197-0.198,0.347-0.693,0.347
		c-2.433,0-5.262-0.149-5.46-0.149c-0.249,0-2.978,0.149-4.318,0.149c-0.445,0-0.694-0.1-0.694-0.347
		c0-0.149,0.101-0.348,0.348-0.348c0.397,0,0.942-0.1,1.341-0.199c0.843-0.198,0.991-0.992,1.141-2.233
		c0.198-1.738,0.247-5.063,0.247-9.131v-7.445c0-6.552,0-7.743-0.099-9.082c-0.1-1.439-0.446-2.084-1.39-2.284
		c-0.496-0.098-1.043-0.148-1.339-0.148c-0.2,0-0.349-0.198-0.349-0.348c0-0.247,0.2-0.347,0.695-0.347c1.439,0,4.168,0.1,4.417,0.1
		c0.198,0,3.027-0.1,4.367-0.1c0.496,0,0.694,0.1,0.694,0.347c0,0.149-0.198,0.348-0.347,0.348c-0.298,0-0.596,0-1.092,0.1
		c-1.191,0.249-1.44,0.843-1.538,2.333c-0.051,1.339-0.051,2.53-0.051,9.082V65.797z"/>
	<path fill="#FFFFFF" d="M189.506,67.286c0-3.425-0.101-3.923-1.886-4.27c-0.348-0.05-1.092-0.099-1.488-0.099
		c-0.149,0-0.349-0.2-0.349-0.349c0-0.296,0.199-0.347,0.695-0.347c1.984,0,4.913,0.1,5.162,0.1c0.197,0,2.929-0.1,4.268-0.1
		c0.496,0,0.695,0.051,0.695,0.347c0,0.148-0.199,0.349-0.349,0.349c-0.298,0-0.594,0-1.092,0.099
		c-1.19,0.197-1.537,0.845-1.637,2.334c-0.049,1.339-0.049,2.58-0.049,4.366v4.714c0,1.938-0.05,1.988-0.597,2.286
		c-2.779,1.438-6.749,1.884-9.28,1.884c-3.326,0-9.528-0.396-14.394-4.517c-2.681-2.232-5.211-6.749-5.211-12.011
		c0-6.748,3.425-11.513,7.296-13.846c3.921-2.382,8.287-2.681,11.613-2.681c2.779,0,5.855,0.497,6.698,0.696
		c0.894,0.198,2.433,0.445,3.526,0.445c0.445,0,0.545,0.2,0.545,0.398c0,0.596-0.247,1.736-0.247,5.954
		c0,0.695-0.199,0.894-0.497,0.894c-0.247,0-0.299-0.248-0.299-0.646c-0.049-0.545-0.298-1.786-0.991-2.779
		c-1.094-1.588-4.419-3.274-10.076-3.274c-2.631,0-5.807,0.198-9.131,2.729c-2.532,1.935-4.319,5.707-4.319,10.62
		c0,5.956,3.078,10.224,4.617,11.662c3.474,3.227,7.146,4.419,11.168,4.419c1.536,0,3.571-0.149,4.712-0.794
		c0.547-0.298,0.895-0.496,0.895-1.292V67.286z"/>
	<path fill="#FFFFFF" d="M210.791,46.986c0.547-1.389,0.745-1.637,1.043-1.637c0.447,0,0.596,0.596,1.041,1.539
		c0.796,1.786,7.794,19.207,10.472,25.607c1.59,3.773,2.781,4.318,3.725,4.616c0.645,0.198,1.29,0.249,1.737,0.249
		c0.247,0,0.545,0.099,0.545,0.348c0,0.247-0.496,0.347-0.992,0.347c-0.646,0-3.872,0-6.9-0.1c-0.843-0.05-1.537-0.05-1.537-0.299
		c0-0.197,0.099-0.197,0.298-0.296c0.247-0.1,0.694-0.446,0.396-1.143l-3.921-9.678c-0.098-0.198-0.146-0.247-0.396-0.247h-10.074
		c-0.2,0-0.349,0.098-0.447,0.347l-2.483,6.749c-0.396,1.041-0.645,2.084-0.645,2.829c0,0.845,0.744,1.143,1.489,1.143h0.397
		c0.348,0,0.447,0.147,0.447,0.348c0,0.247-0.249,0.347-0.646,0.347c-1.043,0-3.425-0.149-3.921-0.149
		c-0.447,0-2.631,0.149-4.416,0.149c-0.546,0-0.844-0.1-0.844-0.347c0-0.2,0.198-0.348,0.396-0.348c0.298,0,0.942-0.051,1.292-0.1
		c1.983-0.249,2.826-1.737,3.671-3.872L210.791,46.986z M215.656,64.554c0.198,0,0.198-0.098,0.149-0.298l-4.318-11.563
		c-0.249-0.646-0.496-0.646-0.745,0l-4.069,11.563c-0.05,0.2,0,0.298,0.148,0.298H215.656z"/>
	<path fill="#FFFFFF" d="M236.593,65.797c0,4.067,0,7.393,0.2,9.131c0.149,1.241,0.298,2.035,1.588,2.233
		c0.645,0.1,1.588,0.199,1.984,0.199c0.248,0,0.347,0.198,0.347,0.348c0,0.197-0.198,0.347-0.694,0.347
		c-2.431,0-5.26-0.149-5.459-0.149c-0.247,0-2.978,0.149-4.318,0.149c-0.445,0-0.694-0.1-0.694-0.347c0-0.149,0.1-0.348,0.347-0.348
		c0.398,0,0.943-0.1,1.341-0.199c0.843-0.198,0.992-0.992,1.142-2.233c0.197-1.738,0.247-5.063,0.247-9.131v-7.445
		c0-6.552,0-7.743-0.099-9.082c-0.1-1.439-0.447-2.084-1.39-2.284c-0.496-0.098-1.043-0.148-1.339-0.148
		c-0.2,0-0.349-0.198-0.349-0.348c0-0.247,0.199-0.347,0.695-0.347c1.439,0,4.17,0.1,4.417,0.1c0.199,0,3.028-0.1,4.367-0.1
		c0.496,0,0.694,0.1,0.694,0.347c0,0.149-0.198,0.348-0.348,0.348c-0.298,0-0.594,0-1.092,0.1c-1.189,0.249-1.438,0.843-1.537,2.333
		c-0.051,1.339-0.051,2.53-0.051,9.082V65.797z"/>
</g>
<g>
	<path fill="#FFFFFF" d="M104.779,32.839c-2.641-2.369-3.295-5.473-3.295-8.06c0-1.825,0.626-5.009,3.05-7.433
		c1.633-1.634,4.112-2.914,8.305-2.914c1.089,0,2.614,0.082,3.948,0.327c1.034,0.189,1.906,0.354,2.777,0.409
		c0.3,0.027,0.354,0.135,0.354,0.299c0,0.217-0.081,0.543-0.136,1.525c-0.054,0.898-0.054,2.396-0.082,2.805
		c-0.026,0.407-0.081,0.571-0.245,0.571c-0.19,0-0.218-0.191-0.218-0.571c0-1.062-0.435-2.179-1.144-2.779
		c-0.953-0.815-3.05-1.551-5.446-1.551c-3.621,0-5.31,1.062-6.262,1.987c-1.988,1.907-2.45,4.33-2.45,7.107
		c0,5.2,4.002,9.965,9.829,9.965c2.042,0,3.648-0.245,4.737-1.361c0.572-0.599,0.926-1.797,1.008-2.287
		c0.054-0.299,0.109-0.409,0.272-0.409c0.136,0,0.191,0.19,0.191,0.409c0,0.19-0.327,2.559-0.6,3.485
		c-0.163,0.516-0.217,0.571-0.708,0.788c-1.089,0.436-3.158,0.627-4.901,0.627C109.681,35.78,106.93,34.773,104.779,32.839z"/>
	<path fill="#FFFFFF" d="M124.514,24.589c0-3.595,0-4.248-0.055-4.983c-0.054-0.79-0.19-1.171-0.979-1.279
		c-0.191-0.027-0.6-0.054-0.817-0.054c-0.082,0-0.19-0.11-0.19-0.192c0-0.135,0.108-0.19,0.38-0.19c1.089,0,2.641,0.055,2.777,0.055
		c0.163,0,5.175,0.028,5.718,0c0.463-0.027,0.899-0.109,1.09-0.136c0.109-0.028,0.219-0.108,0.327-0.108
		c0.081,0,0.108,0.108,0.108,0.217c0,0.163-0.136,0.436-0.191,1.089c-0.025,0.217-0.08,1.252-0.135,1.524
		c-0.027,0.109-0.109,0.246-0.219,0.246c-0.136,0-0.19-0.109-0.19-0.299c0-0.164-0.027-0.545-0.136-0.817
		c-0.163-0.381-0.407-0.545-1.715-0.708c-0.409-0.055-3.187-0.082-3.459-0.082c-0.107,0-0.135,0.082-0.135,0.244v6.29
		c0,0.164,0,0.247,0.135,0.247c0.301,0,3.459,0,4.004-0.055c0.57-0.055,0.924-0.082,1.17-0.327c0.163-0.164,0.271-0.299,0.354-0.299
		s0.137,0.055,0.137,0.19c0,0.136-0.137,0.518-0.189,1.279c-0.056,0.463-0.11,1.335-0.11,1.498c0,0.191-0.055,0.436-0.218,0.436
		c-0.108,0-0.164-0.082-0.164-0.217c0-0.219,0-0.463-0.109-0.763c-0.079-0.327-0.299-0.6-1.224-0.708
		c-0.654-0.083-3.214-0.11-3.622-0.11c-0.135,0-0.162,0.083-0.162,0.164v1.933c0,0.79-0.027,3.485,0,3.948
		c0.055,1.552,0.488,1.851,2.858,1.851c0.626,0,1.769,0,2.396-0.245c0.627-0.272,0.953-0.681,1.089-1.606
		c0.055-0.271,0.108-0.354,0.246-0.354c0.135,0,0.162,0.19,0.162,0.354c0,0.163-0.188,1.743-0.326,2.232
		c-0.163,0.6-0.409,0.6-1.335,0.6c-1.797,0-3.185-0.054-4.166-0.082c-1.006-0.055-1.633-0.055-1.987-0.055
		c-0.054,0-0.517,0-1.034,0.028c-0.463,0.027-1.007,0.055-1.389,0.055c-0.245,0-0.381-0.055-0.381-0.191
		c0-0.081,0.055-0.19,0.191-0.19c0.218,0,0.518-0.082,0.735-0.109c0.463-0.082,0.518-0.544,0.626-1.225
		c0.136-0.954,0.136-2.777,0.136-5.01V24.589z"/>
	<path fill="#FFFFFF" d="M139.159,32.24c0.054,1.905,0.271,2.478,0.924,2.64c0.437,0.109,0.981,0.137,1.199,0.137
		c0.109,0,0.189,0.082,0.189,0.19c0,0.137-0.162,0.191-0.435,0.191c-1.36,0-2.314-0.083-2.532-0.083
		c-0.217,0-1.227,0.083-2.313,0.083c-0.246,0-0.382-0.027-0.382-0.191c0-0.108,0.081-0.19,0.189-0.19
		c0.192,0,0.627-0.028,0.98-0.137c0.601-0.163,0.681-0.789,0.681-2.885v-13.26c0-0.927,0.136-1.172,0.327-1.172
		c0.272,0,0.68,0.463,0.926,0.708c0.382,0.381,3.866,4.083,7.569,7.895c2.369,2.451,4.929,5.201,5.664,5.963l-0.247-11.599
		c-0.025-1.497-0.161-2.015-0.897-2.15c-0.436-0.082-0.979-0.109-1.171-0.109c-0.162,0-0.189-0.137-0.189-0.218
		c0-0.137,0.189-0.164,0.463-0.164c1.088,0,2.231,0.055,2.504,0.055s1.061-0.055,2.043-0.055c0.244,0,0.436,0.027,0.436,0.164
		c0,0.081-0.109,0.218-0.272,0.218c-0.109,0-0.3,0-0.572,0.054c-0.789,0.163-0.844,0.626-0.844,2.015l-0.055,13.56
		c0,1.525-0.027,1.661-0.19,1.661c-0.245,0-0.49-0.19-1.824-1.416c-0.245-0.217-3.702-3.621-6.235-6.262
		c-2.777-2.913-5.472-5.745-6.208-6.562L139.159,32.24z"/>
	<path fill="#FFFFFF" d="M164.692,28.673c0,2.233,0,4.057,0.108,5.01c0.08,0.681,0.19,1.116,0.925,1.225
		c0.327,0.055,0.871,0.109,1.09,0.109c0.162,0,0.19,0.109,0.19,0.19c0,0.109-0.108,0.191-0.382,0.191
		c-1.308,0-2.831-0.083-2.968-0.083c-0.109,0-1.77,0.083-2.478,0.083c-0.271,0-0.381-0.055-0.381-0.191
		c0-0.081,0.055-0.163,0.191-0.163c0.217,0,0.488-0.055,0.707-0.109c0.49-0.109,0.627-0.571,0.707-1.252
		c0.11-0.954,0.11-2.777,0.11-5.01v-9.72l-3.459,0.055c-1.497,0.027-2.068,0.19-2.423,0.735c-0.271,0.409-0.299,0.571-0.381,0.735
		c-0.056,0.19-0.136,0.217-0.245,0.217c-0.055,0-0.163-0.055-0.163-0.191c0-0.245,0.463-2.314,0.518-2.504
		c0.027-0.137,0.161-0.437,0.244-0.437c0.164,0,0.409,0.19,1.062,0.272c0.682,0.082,1.606,0.109,1.88,0.109h9.039
		c0.789,0,1.334-0.055,1.716-0.109c0.354-0.055,0.571-0.109,0.681-0.109s0.109,0.137,0.109,0.273c0,0.708-0.082,2.368-0.082,2.64
		c0,0.191-0.109,0.299-0.219,0.299c-0.108,0-0.163-0.082-0.189-0.408l-0.027-0.245c-0.082-0.708-0.6-1.225-2.888-1.279l-2.993-0.055
		V28.673z"/>
	<path fill="#FFFFFF" d="M174.706,24.589c0-3.595,0-4.248-0.055-4.983c-0.055-0.79-0.19-1.171-0.98-1.279
		c-0.191-0.027-0.598-0.054-0.818-0.054c-0.081,0-0.188-0.11-0.188-0.192c0-0.135,0.107-0.19,0.382-0.19
		c1.088,0,2.694,0.055,2.83,0.055c0.245,0,2.26-0.055,2.996-0.055c1.524,0,3.212,0.137,4.464,1.007c0.6,0.437,1.66,1.553,1.66,3.159
		c0,1.715-0.706,3.375-2.939,5.282c1.96,2.451,3.621,4.547,5.009,5.991c1.281,1.307,2.069,1.523,2.671,1.606
		c0.462,0.082,0.707,0.082,0.843,0.082c0.137,0,0.218,0.109,0.218,0.19c0,0.137-0.136,0.191-0.572,0.191h-1.497
		c-1.36,0-1.96-0.137-2.56-0.463c-1.033-0.544-1.905-1.661-3.269-3.403c-1.006-1.253-2.069-2.75-2.585-3.375
		c-0.109-0.11-0.163-0.137-0.327-0.137l-3.05-0.055c-0.107,0-0.162,0.055-0.162,0.192V28.7c0,2.233,0,4.029,0.109,4.983
		c0.079,0.681,0.216,1.116,0.951,1.225c0.327,0.055,0.844,0.109,1.063,0.109c0.161,0,0.188,0.109,0.188,0.19
		c0,0.109-0.107,0.191-0.381,0.191c-1.307,0-2.831-0.083-2.94-0.083c-0.026,0-1.633,0.083-2.367,0.083
		c-0.247,0-0.381-0.055-0.381-0.191c0-0.081,0.055-0.19,0.188-0.19c0.22,0,0.518-0.055,0.736-0.109
		c0.463-0.109,0.518-0.544,0.626-1.225c0.137-0.954,0.137-2.777,0.137-5.01V24.589z M176.775,26.549
		c0,0.137,0.055,0.218,0.162,0.299c0.354,0.191,1.58,0.354,2.642,0.354c0.572,0,1.224-0.027,1.798-0.408
		c0.816-0.544,1.442-1.769,1.442-3.539c0-2.887-1.58-4.547-4.14-4.547c-0.707,0-1.469,0.08-1.716,0.135
		c-0.106,0.055-0.188,0.137-0.188,0.272V26.549z"/>
	<path fill="#FFFFFF" d="M198.797,17.564c5.392,0,9.477,3.294,9.477,8.686c0,5.173-3.839,9.448-9.611,9.448
		c-6.563,0-9.367-4.929-9.367-9.095C189.295,22.874,192.18,17.564,198.797,17.564z M199.342,34.746c2.151,0,6.48-1.144,6.48-7.843
		c0-5.554-3.376-8.468-7.16-8.468c-4.004,0-6.89,2.505-6.89,7.542C191.772,31.368,195.013,34.746,199.342,34.746z"/>
</g>
</svg>
